<svg width="22" height="22" viewBox="0 0 22 22" fill="none" xmlns="http://www.w3.org/2000/svg">
<path fill-rule="evenodd" clip-rule="evenodd" d="M10.3846 0.0531774C11.2229 0.00417744 11.6421 1.04958 11.0023 1.59342C9.51882 2.85419 8.64844 4.69519 8.64844 6.67972C8.64844 10.3645 11.6356 13.3516 15.3203 13.3516C17.3048 13.3516 19.1458 12.4812 20.4066 10.9977C20.9499 10.3585 21.9943 10.7762 21.947 11.6138C21.6203 17.3936 16.8281 21.9375 11.0137 21.9375C4.96551 21.9375 0.0625 17.0345 0.0625 10.9864C0.0625 5.20616 4.55472 0.431013 10.2945 0.0584548L10.3001 0.0580993L10.3846 0.0531774ZM8.16582 2.23384L8.05338 2.27108C4.41289 3.50628 1.8125 6.95567 1.8125 10.9864C1.8125 16.068 5.932 20.1875 11.0137 20.1875C15.0682 20.1875 18.5315 17.5573 19.7487 13.8873L19.7658 13.8344L19.7628 13.8363C18.4727 14.6383 16.9703 15.0874 15.3954 15.1012L15.3203 15.1016C10.669 15.1016 6.89844 11.331 6.89844 6.67972C6.89844 5.07751 7.34895 3.54776 8.16372 2.23726L8.16582 2.23384Z" fill="white"/>
</svg>
